<svg width="1000" height="1000" viewBox="0 0 1000 1000" fill="none" xmlns="http://www.w3.org/2000/svg">
<rect width="1000" height="1000" fill="black"/>
<path fill-rule="evenodd" clip-rule="evenodd" d="M192 226C192 246.422 200.112 266.007 214.553 280.447C228.993 294.888 248.578 303 269 303C289.422 303 309.007 294.888 323.447 280.447C337.888 266.007 346 246.422 346 226C346 205.578 337.888 185.993 323.447 171.553C309.007 157.112 289.422 149 269 149C248.578 149 228.993 157.112 214.553 171.553C200.112 185.993 192 205.578 192 226Z" fill="url(#i)"/>
<path fill-rule="evenodd" clip-rule="evenodd" d="M712 353C712 366.261 706.732 378.979 697.355 388.355C687.979 397.732 675.261 403 662 403C648.739 403 636.021 397.732 626.645 388.355C617.268 378.979 612 366.261 612 353C612 339.739 617.268 327.021 626.645 317.645C636.021 308.268 648.739 303 662 303C675.261 303 687.979 308.268 697.355 317.645C706.732 327.021 712 339.739 712 353Z" fill="url(#i)"/>
<path fill-rule="evenodd" clip-rule="evenodd" d="M712 353C712 366.261 706.732 378.979 697.355 388.355C687.979 397.732 675.261 403 662 403C648.739 403 636.021 397.732 626.645 388.355C617.268 378.979 612 366.261 612 353C612 339.739 617.268 327.021 626.645 317.645C636.021 308.268 648.739 303 662 303C675.261 303 687.979 308.268 697.355 317.645C706.732 327.021 712 339.739 712 353Z" fill="url(#i)"/>
<path fill-rule="evenodd" clip-rule="evenodd" d="M828 805C828 818.261 822.732 830.979 813.355 840.355C803.979 849.732 791.261 855 778 855C764.739 855 752.021 849.732 742.645 840.355C733.268 830.979 728 818.261 728 805C728 791.739 733.268 779.021 742.645 769.645C752.021 760.268 764.739 755 778 755C791.261 755 803.979 760.268 813.355 769.645C822.732 779.021 828 791.739 828 805Z" fill="url(#i)"/>
<path fill-rule="evenodd" clip-rule="evenodd" d="M828 805C828 818.261 822.732 830.979 813.355 840.355C803.979 849.732 791.261 855 778 855C764.739 855 752.021 849.732 742.645 840.355C733.268 830.979 728 818.261 728 805C728 791.739 733.268 779.021 742.645 769.645C752.021 760.268 764.739 755 778 755C791.261 755 803.979 760.268 813.355 769.645C822.732 779.021 828 791.739 828 805Z" fill="url(#i)"/>
<path fill-rule="evenodd" clip-rule="evenodd" d="M295 640C295 646.896 292.261 653.509 287.385 658.385C282.509 663.261 275.896 666 269 666C262.104 666 255.491 663.261 250.615 658.385C245.739 653.509 243 646.896 243 640C243 633.104 245.739 626.491 250.615 621.615C255.491 616.739 262.104 614 269 614C275.896 614 282.509 616.739 287.385 621.615C292.261 626.491 295 633.104 295 640Z" fill="url(#i)"/>
<path fill-rule="evenodd" clip-rule="evenodd" d="M295 640C295 646.896 292.261 653.509 287.385 658.385C282.509 663.261 275.896 666 269 666C262.104 666 255.491 663.261 250.615 658.385C245.739 653.509 243 646.896 243 640C243 633.104 245.739 626.491 250.615 621.615C255.491 616.739 262.104 614 269 614C275.896 614 282.509 616.739 287.385 621.615C292.261 626.491 295 633.104 295 640Z" fill="url(#i)"/>
<defs>
        <radialGradient id="i" cx="0" cy="0" r="0.8" gradientUnits="userSpaceOnUse"
            gradientTransform="translate(0, 700) rotate(0) scale(400)">
            <stop stop-color="#ff0000" />
            <stop offset="1" stop-color="#0f0f0f" stop-opacity="0" />
            <animate attributeName="cx" dur="10s" repeatCount="indefinite" values="-0.6; 2.6;" />
        </radialGradient>
</defs>
</svg>
